{"title":"Christy Moore For One Night Only [RTE Ireland] HQ PDTV x264 AC3","uid":8181131,"size":609407453,"categoryP":"video","categoryS":"tv_shows","magnet":"?xt=urn:btih:e030c70504b81989d4eee5b3f201e4ccc2448a8a&amp;dn=Christy+Moore+For+One+Night+Only+%5BRTE+Ireland%5D+HQ+PDTV+x264+AC3&amp;tr=udp%3A%2F%2Ftracker.openbittorrent.com%3A80&amp;tr=udp%3A%2F%2Fopen.demonii.com%3A1337&amp;tr=udp%3A%2F%2Ftracker.coppersurfer.tk%3A6969&amp;tr=udp%3A%2F%2Fexodus.desync.com%3A6969","seeders":1,"leechers":0,"uploader":"DeViL303","files":-1,"time":1361629010,"description":"Christy Moore For One Night Only [RTE Ireland] HQ PDTV x264 AC3 DeViL303\n\nMusic legend Christy Moore discusses his life and work and plays some of his classic songs when he joins Gay Byrne on For One Night Only on RTÃ‰ One \n\n\nIn the programme Moore talks about the influence the Clancy Brothers and civil rights fundraiser Dominic Behan had on his work and his own role as a social commentator in song.\n\nHe pays tribute to his late mother and discusses how she inspired him to write Yellow Furze Woman, which he also performs.\n\nMoore also tells of writing Me and the Rose about former Rose of Tralee Brenda Hyland, and how thoughts of her took his imagination to far-off places.\n\nThe show features Moore performing his favourite song, Lord Baker, a cappella, and among the other classics in his set are Ordinary Man, Nancy Spain and Lisdoonvarna.\n\nFile Info:\nComplete name                            : Christy Moore For One Night Only [RTE Ireland] HQ PDTV x264 AC3 DeViL303.mkv\nFormat                                   : Matroska\nFormat version                           : Version 1\nFile size                                : 581 MiB\nDuration                                 : 54mn 15s\nOverall bit rate mode                    : Variable\nOverall bit rate                         : 1 497 Kbps\nEncoded date                             : UTC 2013-02-21 18:07:14\nWriting application                      : mkvmerge v2.5.3 ('Boogie') built on Mar  7 2009 15:00:41\nWriting library                          : libebml v0.7.7 + libmatroska v0.8.1\n\nVideo\nID                                       : 1\nFormat                                   : AVC\nFormat/Info                              : Advanced Video Codec\nFormat profile                           : &lt;a class=&quot;__cf_email__&quot; href=&quot;/cdn-cgi/l/email-protection&quot; data-cfemail=&quot;dd95b4bab59d91eef3ed&quot;&gt;[email&amp;#160;protected]&lt;/a&gt;&lt;script cf-hash='f9e31' type=&quot;text/javascript&quot;&gt;\n/* &lt;![CDATA[ */!function(){try{var t=&quot;currentScript&quot;in document?document.currentScript:function(){for(var t=document.getElementsByTagName(&quot;script&quot;),e=t.length;e--;)if(t[e].getAttribute(&quot;cf-hash&quot;))return t[e]}();if(t&amp;&amp;t.previousSibling){var e,r,n,i,c=t.previousSibling,a=c.getAttribute(&quot;data-cfemail&quot;);if(a){for(e=&quot;&quot;,r=parseInt(a.substr(0,2),16),n=2;a.length-n;n+=2)i=parseInt(a.substr(n,2),16)^r,e+=String.fromCharCode(i);e=document.createTextNode(e),c.parentNode.replaceChild(e,c)}}}catch(u){}}();/* ]]&gt; */&lt;/script&gt;\nFormat settings, CABAC                   : Yes\nFormat settings, ReFrames                : 3 frames\nCodec ID                                 : V_MPEG4/ISO/AVC\nDuration                                 : 54mn 15s\nBit rate mode                            : Variable\nBit rate                                 : 1 303 Kbps\nMaximum bit rate                         : 12.0 Mbps\nWidth                                    : 720 pixels\nHeight                                   : 576 pixels\nDisplay aspect ratio                     : 16:9\nOriginal display aspect ratio            : 5:4\nFrame rate mode                          : Constant\nFrame rate                               : 25.000 fps\nStandard                                 : PAL\nColor space                              : YUV\nChroma subsampling                       : 4:2:0\nBit depth                                : 8 bits\nScan type                                : Progressive\nBits/(Pixel*Frame)                       : 0.126\nStream size                              : 495 MiB (85%)\nWriting library                          : x264 core 93 r1542M 5b86182\nEncoding settings                        : cabac=1 / ref=3 / deblock=1:-1:-1 / \nDefault                                  : Yes\nForced                                   : No\n\nAudio\nID                                       : 2\nFormat                                   : AC-3\nFormat/Info                              : Audio Coding 3\nMode extension                           : CM (complete main)\nFormat settings, Endianness              : Big\nCodec ID                                 : A_AC3\nDuration                                 : 54mn 15s\nBit rate mode                            : Constant\nBit rate                                 : 192 Kbps\nChannel(s)                               : 2 channels\nChannel positions                        : Front: L R\nSampling rate                            : 48.0 KHz\nBit depth                                : 16 bits\nCompression mode                         : Lossy\nStream size                              : 74.5 MiB (13%)\nDefault                                  : Yes\nForced                                   : No","torrent":{"xt":"urn:btih:e030c70504b81989d4eee5b3f201e4ccc2448a8a","amp;dn":"Christy+Moore+For+One+Night+Only+%5BRTE+Ireland%5D+HQ+PDTV+x264+AC3","amp;tr":["udp%3A%2F%2Ftracker.openbittorrent.com%3A80","udp%3A%2F%2Fopen.demonii.com%3A1337","udp%3A%2F%2Ftracker.coppersurfer.tk%3A6969","udp%3A%2F%2Fexodus.desync.com%3A6969"],"infoHash":"e030c70504b81989d4eee5b3f201e4ccc2448a8a","infoHashBuffer":{"type":"Buffer","data":[224,48,199,5,4,184,25,137,212,238,229,179,242,1,228,204,194,68,138,138]},"announce":[],"urlList":[]}}